<mxfile host="app.diagrams.net" modified="2023-10-31T06:14:42.786Z" agent="Mozilla/5.0 (Windows NT 10.0; Win64; x64; rv:109.0) Gecko/20100101 Firefox/119.0" version="22.0.8" etag="-4F5NjaX9yfn0yiXPf61" type="github">
  <diagram name="Page-1" id="kChtYvdP0TVQ0XziH1r4">
    <mxGraphModel>
      <root>
        <mxCell id="0" />
        <mxCell id="1" parent="0" />
      </root>
    </mxGraphModel>
  </diagram>
</mxfile>
